<mxfile host="Electron" modified="2023-10-16T05:38:41.852Z" agent="Mozilla/5.0 (Macintosh; Intel Mac OS X 10_15_7) AppleWebKit/537.36 (KHTML, like Gecko) draw.io/21.5.1 Chrome/112.0.5615.204 Electron/24.6.0 Safari/537.36" etag="ljfhWUZqVlT1B7SyshiF" version="21.5.1" type="device">
  <diagram id="wK-rLH0D6GadbNM3ItPR" name="第 1 页">
    <mxGraphModel dx="984" dy="659" grid="1" gridSize="10" guides="1" tooltips="1" connect="1" arrows="1" fold="1" page="1" pageScale="1" pageWidth="3300" pageHeight="4681" background="none" math="0" shadow="0">
      <root>
        <mxCell id="0" />
        <mxCell id="1" parent="0" />
        <mxCell id="dncLsIHlxRkaWXGbc7eU-50" value="" style="endArrow=classic;endFill=1;endSize=8;html=1;labelBackgroundColor=none;strokeColor=#A8201A;fontColor=default;entryX=1.1;entryY=0.95;entryDx=0;entryDy=0;entryPerimeter=0;dashed=1;fontSize=10;fontStyle=0" parent="1" target="06gIBUMiGxIdU6d7lTlG-5" edge="1">
          <mxGeometry width="160" relative="1" as="geometry">
            <mxPoint x="520" y="700" as="sourcePoint" />
            <mxPoint x="410" y="700" as="targetPoint" />
            <Array as="points">
              <mxPoint x="486" y="700" />
            </Array>
          </mxGeometry>
        </mxCell>
        <mxCell id="dncLsIHlxRkaWXGbc7eU-49" value="" style="endArrow=classic;endFill=1;endSize=8;html=1;labelBackgroundColor=none;strokeColor=#A8201A;fontColor=default;dashed=1;fontSize=10;fontStyle=0" parent="1" target="06gIBUMiGxIdU6d7lTlG-10" edge="1">
          <mxGeometry width="160" relative="1" as="geometry">
            <mxPoint x="705" y="680" as="sourcePoint" />
            <mxPoint x="530" y="680.03" as="targetPoint" />
            <Array as="points">
              <mxPoint x="671" y="680" />
            </Array>
          </mxGeometry>
        </mxCell>
        <mxCell id="dncLsIHlxRkaWXGbc7eU-48" value="" style="endArrow=classic;endFill=1;endSize=8;html=1;labelBackgroundColor=none;strokeColor=#A8201A;fontColor=default;dashed=1;fontSize=10;fontStyle=0" parent="1" edge="1">
          <mxGeometry width="160" relative="1" as="geometry">
            <mxPoint x="1025" y="660" as="sourcePoint" />
            <mxPoint x="706" y="660" as="targetPoint" />
            <Array as="points">
              <mxPoint x="991" y="660" />
            </Array>
          </mxGeometry>
        </mxCell>
        <mxCell id="dncLsIHlxRkaWXGbc7eU-47" value="" style="edgeStyle=orthogonalEdgeStyle;html=1;align=left;spacingLeft=2;endArrow=classic;rounded=0;entryX=1;entryY=0;labelBackgroundColor=none;strokeColor=#A8201A;fontColor=default;fontSize=10;endFill=1;fontStyle=0" parent="1" edge="1">
          <mxGeometry x="1" y="147" relative="1" as="geometry">
            <mxPoint x="1020" y="630" as="sourcePoint" />
            <Array as="points">
              <mxPoint x="1045" y="630" />
            </Array>
            <mxPoint x="1025" y="650" as="targetPoint" />
            <mxPoint x="-85" y="-27" as="offset" />
          </mxGeometry>
        </mxCell>
        <mxCell id="dncLsIHlxRkaWXGbc7eU-43" value="" style="endArrow=block;endFill=1;endSize=8;html=1;labelBackgroundColor=none;strokeColor=#A8201A;fontColor=default;fontSize=10;fontStyle=0" parent="1" edge="1">
          <mxGeometry width="160" relative="1" as="geometry">
            <mxPoint x="520" y="600.02" as="sourcePoint" />
            <mxPoint x="694" y="600" as="targetPoint" />
            <Array as="points">
              <mxPoint x="596" y="600.02" />
            </Array>
          </mxGeometry>
        </mxCell>
        <mxCell id="dncLsIHlxRkaWXGbc7eU-41" value="" style="endArrow=classic;endFill=1;endSize=8;html=1;labelBackgroundColor=none;strokeColor=#A8201A;fontColor=default;entryX=1.1;entryY=0.754;entryDx=0;entryDy=0;entryPerimeter=0;dashed=1;fontSize=10;fontStyle=0" parent="1" edge="1">
          <mxGeometry width="160" relative="1" as="geometry">
            <mxPoint x="699.5" y="540.98" as="sourcePoint" />
            <mxPoint x="540.5" y="540" as="targetPoint" />
            <Array as="points">
              <mxPoint x="635.5" y="540.98" />
            </Array>
          </mxGeometry>
        </mxCell>
        <mxCell id="dncLsIHlxRkaWXGbc7eU-39" value="" style="endArrow=classic;endFill=1;endSize=8;html=1;labelBackgroundColor=none;strokeColor=#A8201A;fontColor=default;entryX=1;entryY=0.667;entryDx=0;entryDy=0;entryPerimeter=0;dashed=1;fontSize=10;fontStyle=0" parent="1" target="dncLsIHlxRkaWXGbc7eU-37" edge="1">
          <mxGeometry width="160" relative="1" as="geometry">
            <mxPoint x="1020" y="500" as="sourcePoint" />
            <mxPoint x="850" y="500" as="targetPoint" />
            <Array as="points">
              <mxPoint x="986" y="500" />
            </Array>
          </mxGeometry>
        </mxCell>
        <mxCell id="dncLsIHlxRkaWXGbc7eU-38" value="" style="endArrow=classic;endFill=1;endSize=8;html=1;labelBackgroundColor=none;strokeColor=#A8201A;fontColor=default;entryX=-0.1;entryY=0.4;entryDx=0;entryDy=0;entryPerimeter=0;fontSize=10;fontStyle=0" parent="1" target="dncLsIHlxRkaWXGbc7eU-30" edge="1">
          <mxGeometry width="160" relative="1" as="geometry">
            <mxPoint x="841" y="480.03999999999996" as="sourcePoint" />
            <mxPoint x="970" y="480" as="targetPoint" />
            <Array as="points">
              <mxPoint x="917" y="480.03999999999996" />
            </Array>
          </mxGeometry>
        </mxCell>
        <mxCell id="dncLsIHlxRkaWXGbc7eU-34" value="" style="endArrow=classic;endFill=1;endSize=8;html=1;labelBackgroundColor=none;strokeColor=#A8201A;fontColor=default;dashed=1;fontSize=10;fontStyle=0" parent="1" edge="1">
          <mxGeometry width="160" relative="1" as="geometry">
            <mxPoint x="839.5" y="380" as="sourcePoint" />
            <mxPoint x="540" y="380" as="targetPoint" />
            <Array as="points">
              <mxPoint x="636" y="380" />
            </Array>
          </mxGeometry>
        </mxCell>
        <mxCell id="dncLsIHlxRkaWXGbc7eU-18" value="" style="edgeStyle=orthogonalEdgeStyle;html=1;align=left;spacingLeft=2;endArrow=classic;rounded=0;entryX=1;entryY=0;labelBackgroundColor=none;strokeColor=#A8201A;fontColor=default;fontSize=10;endFill=1;fontStyle=0" parent="1" edge="1">
          <mxGeometry x="1" y="147" relative="1" as="geometry">
            <mxPoint x="840" y="350" as="sourcePoint" />
            <Array as="points">
              <mxPoint x="865" y="350" />
            </Array>
            <mxPoint x="845" y="370" as="targetPoint" />
            <mxPoint x="-85" y="-27" as="offset" />
          </mxGeometry>
        </mxCell>
        <mxCell id="dncLsIHlxRkaWXGbc7eU-15" value="" style="endArrow=classic;endFill=1;endSize=8;html=1;exitX=1.1;exitY=0.15;exitDx=0;exitDy=0;exitPerimeter=0;labelBackgroundColor=none;strokeColor=#A8201A;fontColor=default;fontSize=10;fontStyle=0" parent="1" edge="1">
          <mxGeometry width="160" relative="1" as="geometry">
            <mxPoint x="540" y="340.0799999999999" as="sourcePoint" />
            <mxPoint x="834" y="340" as="targetPoint" />
          </mxGeometry>
        </mxCell>
        <mxCell id="dncLsIHlxRkaWXGbc7eU-11" value="" style="endArrow=classic;endFill=1;endSize=8;html=1;labelBackgroundColor=none;strokeColor=#A8201A;fontColor=default;fontSize=10;fontStyle=0" parent="1" edge="1">
          <mxGeometry width="160" relative="1" as="geometry">
            <mxPoint x="540" y="440" as="sourcePoint" />
            <mxPoint x="694" y="440" as="targetPoint" />
            <Array as="points">
              <mxPoint x="616" y="440" />
            </Array>
          </mxGeometry>
        </mxCell>
        <mxCell id="dncLsIHlxRkaWXGbc7eU-7" value="" style="edgeStyle=orthogonalEdgeStyle;html=1;align=left;spacingLeft=2;endArrow=classic;rounded=0;labelBackgroundColor=none;strokeColor=#A8201A;fontColor=default;fontSize=10;endFill=1;fontStyle=0" parent="1" edge="1">
          <mxGeometry x="1" y="147" relative="1" as="geometry">
            <mxPoint x="520" y="320" as="sourcePoint" />
            <Array as="points">
              <mxPoint x="520" y="330" />
              <mxPoint x="540" y="330" />
              <mxPoint x="540" y="406" />
            </Array>
            <mxPoint x="526" y="406" as="targetPoint" />
            <mxPoint x="-85" y="-27" as="offset" />
          </mxGeometry>
        </mxCell>
        <mxCell id="06gIBUMiGxIdU6d7lTlG-1" value="String" style="shape=umlLifeline;perimeter=lifelinePerimeter;whiteSpace=wrap;html=1;container=1;collapsible=0;recursiveResize=0;outlineConnect=0;size=20;fontStyle=0;fillColor=#FAE5C7;strokeColor=#0F8B8D;fontColor=#143642;labelBackgroundColor=none;fontSize=10;" parent="1" vertex="1">
          <mxGeometry x="360" y="260" width="80" height="480" as="geometry" />
        </mxCell>
        <mxCell id="06gIBUMiGxIdU6d7lTlG-5" value="" style="html=1;points=[];perimeter=orthogonalPerimeter;fillColor=#FAE5C7;strokeColor=#0F8B8D;fontColor=#143642;labelBackgroundColor=none;fontSize=10;fontStyle=0" parent="06gIBUMiGxIdU6d7lTlG-1" vertex="1">
          <mxGeometry x="35" y="40" width="10" height="420" as="geometry" />
        </mxCell>
        <mxCell id="06gIBUMiGxIdU6d7lTlG-2" value="StringCoding" style="shape=umlLifeline;perimeter=lifelinePerimeter;whiteSpace=wrap;html=1;container=1;collapsible=0;recursiveResize=0;outlineConnect=0;size=20;fontStyle=0;fillColor=#FAE5C7;strokeColor=#0F8B8D;fontColor=#143642;labelBackgroundColor=none;fontSize=10;" parent="1" vertex="1">
          <mxGeometry x="470" y="260" width="100" height="480" as="geometry" />
        </mxCell>
        <mxCell id="dncLsIHlxRkaWXGbc7eU-35" value="" style="edgeStyle=orthogonalEdgeStyle;html=1;align=left;spacingLeft=2;endArrow=classic;rounded=0;labelBackgroundColor=none;strokeColor=#A8201A;fontColor=default;exitX=0.9;exitY=0.458;exitDx=0;exitDy=0;exitPerimeter=0;entryX=1.1;entryY=0.624;entryDx=0;entryDy=0;entryPerimeter=0;fontSize=10;endFill=1;fontStyle=0" parent="06gIBUMiGxIdU6d7lTlG-2" source="06gIBUMiGxIdU6d7lTlG-10" target="06gIBUMiGxIdU6d7lTlG-10" edge="1">
          <mxGeometry x="1" y="147" relative="1" as="geometry">
            <mxPoint x="50" y="150" as="sourcePoint" />
            <Array as="points">
              <mxPoint x="54" y="159" />
              <mxPoint x="50" y="159" />
              <mxPoint x="50" y="160" />
              <mxPoint x="70" y="160" />
              <mxPoint x="70" y="302" />
            </Array>
            <mxPoint x="60" y="302" as="targetPoint" />
            <mxPoint x="-85" y="-27" as="offset" />
          </mxGeometry>
        </mxCell>
        <mxCell id="06gIBUMiGxIdU6d7lTlG-10" value="" style="html=1;points=[];perimeter=orthogonalPerimeter;fillColor=#FAE5C7;strokeColor=#0F8B8D;fontColor=#143642;labelBackgroundColor=none;fontSize=10;fontStyle=0" parent="06gIBUMiGxIdU6d7lTlG-2" vertex="1">
          <mxGeometry x="45" y="40" width="10" height="420" as="geometry" />
        </mxCell>
        <mxCell id="06gIBUMiGxIdU6d7lTlG-3" value="" style="endArrow=classic;endFill=1;endSize=8;html=1;exitX=0.9;exitY=0.069;exitDx=0;exitDy=0;exitPerimeter=0;entryX=0;entryY=0.069;entryDx=0;entryDy=0;entryPerimeter=0;labelBackgroundColor=none;strokeColor=#A8201A;fontColor=default;fontSize=10;fontStyle=0" parent="1" source="06gIBUMiGxIdU6d7lTlG-5" target="06gIBUMiGxIdU6d7lTlG-10" edge="1">
          <mxGeometry width="160" relative="1" as="geometry">
            <mxPoint x="390" y="310" as="sourcePoint" />
            <mxPoint x="470" y="310" as="targetPoint" />
          </mxGeometry>
        </mxCell>
        <mxCell id="06gIBUMiGxIdU6d7lTlG-4" value="1. getBytes" style="text;html=1;resizable=0;autosize=1;align=center;verticalAlign=middle;points=[];fillColor=none;strokeColor=none;rounded=0;fontColor=#143642;labelBackgroundColor=none;fontSize=10;fontStyle=0" parent="1" vertex="1">
          <mxGeometry x="415" y="305" width="70" height="30" as="geometry" />
        </mxCell>
        <mxCell id="06gIBUMiGxIdU6d7lTlG-35" style="edgeStyle=orthogonalEdgeStyle;rounded=0;orthogonalLoop=1;jettySize=auto;html=1;exitX=0.5;exitY=0;exitDx=0;exitDy=0;entryX=0.25;entryY=1;entryDx=0;entryDy=0;dashed=1;endArrow=block;endFill=0;endSize=8;labelBackgroundColor=none;strokeColor=#457B9D;fontColor=default;fontSize=10;fontStyle=0" parent="1" source="06gIBUMiGxIdU6d7lTlG-12" target="06gIBUMiGxIdU6d7lTlG-13" edge="1">
          <mxGeometry relative="1" as="geometry">
            <Array as="points">
              <mxPoint x="831" y="950" />
              <mxPoint x="881" y="950" />
            </Array>
          </mxGeometry>
        </mxCell>
        <mxCell id="06gIBUMiGxIdU6d7lTlG-12" value="GBK" style="fontStyle=0;align=center;fillColor=#dae8fc;strokeColor=#6c8ebf;labelBackgroundColor=none;fontSize=10;" parent="1" vertex="1">
          <mxGeometry x="791" y="990" width="80" height="20" as="geometry" />
        </mxCell>
        <mxCell id="06gIBUMiGxIdU6d7lTlG-13" value="&lt;p style=&quot;margin: 4px 0px 0px; text-align: center; font-size: 10px;&quot;&gt;&lt;span style=&quot;font-size: 10px;&quot;&gt;Charset&lt;/span&gt;&lt;br style=&quot;font-size: 10px;&quot;&gt;&lt;/p&gt;&lt;hr style=&quot;font-size: 10px;&quot;&gt;&lt;p style=&quot;margin: 0px 0px 0px 4px; font-size: 10px;&quot;&gt;+ newEncoder():&amp;nbsp;CharsetEncoder&lt;/p&gt;&lt;p style=&quot;margin: 0px 0px 0px 4px; font-size: 10px;&quot;&gt;+&amp;nbsp;newDecoder():&amp;nbsp;CharsetDecoder&lt;/p&gt;" style="verticalAlign=top;align=left;overflow=fill;fontSize=10;fontFamily=Helvetica;html=1;fillColor=#dae8fc;strokeColor=#6c8ebf;labelBackgroundColor=none;fontStyle=0" parent="1" vertex="1">
          <mxGeometry x="831" y="860" width="200" height="60" as="geometry" />
        </mxCell>
        <mxCell id="06gIBUMiGxIdU6d7lTlG-14" value="StringCoding" style="fontStyle=0;align=center;fillColor=#dae8fc;strokeColor=#6c8ebf;labelBackgroundColor=none;fontSize=10;" parent="1" vertex="1">
          <mxGeometry x="520" y="1050" width="120" height="20" as="geometry" />
        </mxCell>
        <mxCell id="06gIBUMiGxIdU6d7lTlG-18" value="&lt;p style=&quot;margin: 4px 0px 0px; font-size: 10px;&quot;&gt;&lt;span style=&quot;font-size: 10px;&quot;&gt;CharsetEncoder&lt;/span&gt;&lt;br style=&quot;font-size: 10px;&quot;&gt;&lt;/p&gt;&lt;hr style=&quot;font-size: 10px;&quot;&gt;&lt;p style=&quot;text-align: left; margin: 0px 0px 0px 4px; font-size: 10px;&quot;&gt;+ encodeLoop...&lt;/p&gt;" style="verticalAlign=top;align=center;overflow=fill;fontSize=10;fontFamily=Helvetica;html=1;fillColor=#dae8fc;strokeColor=#6c8ebf;labelBackgroundColor=none;fontStyle=0" parent="1" vertex="1">
          <mxGeometry x="420" y="860" width="120" height="40" as="geometry" />
        </mxCell>
        <mxCell id="06gIBUMiGxIdU6d7lTlG-19" value="&lt;p style=&quot;margin: 4px 0px 0px; font-size: 10px;&quot;&gt;&lt;span style=&quot;font-size: 10px;&quot;&gt;CharsetDecoder&lt;/span&gt;&lt;br style=&quot;font-size: 10px;&quot;&gt;&lt;/p&gt;&lt;hr style=&quot;font-size: 10px;&quot;&gt;&lt;p style=&quot;text-align: left; margin: 0px 0px 0px 4px; font-size: 10px;&quot;&gt;+ decodeLoop...&lt;/p&gt;" style="verticalAlign=top;align=center;overflow=fill;fontSize=10;fontFamily=Helvetica;html=1;fillColor=#dae8fc;strokeColor=#6c8ebf;labelBackgroundColor=none;fontStyle=0" parent="1" vertex="1">
          <mxGeometry x="620" y="860" width="120" height="40" as="geometry" />
        </mxCell>
        <mxCell id="06gIBUMiGxIdU6d7lTlG-28" style="edgeStyle=orthogonalEdgeStyle;rounded=0;orthogonalLoop=1;jettySize=auto;html=1;exitX=0.5;exitY=1;exitDx=0;exitDy=0;endArrow=diamondThin;endFill=0;endSize=8;labelBackgroundColor=none;strokeColor=#457B9D;fontColor=default;fontSize=10;fontStyle=0" parent="1" source="06gIBUMiGxIdU6d7lTlG-20" edge="1">
          <mxGeometry relative="1" as="geometry">
            <Array as="points">
              <mxPoint x="480" y="1030" />
              <mxPoint x="550" y="1030" />
            </Array>
            <mxPoint x="550" y="1050" as="targetPoint" />
          </mxGeometry>
        </mxCell>
        <mxCell id="06gIBUMiGxIdU6d7lTlG-31" style="edgeStyle=orthogonalEdgeStyle;rounded=0;orthogonalLoop=1;jettySize=auto;html=1;exitX=0.5;exitY=0;exitDx=0;exitDy=0;entryX=0.5;entryY=1;entryDx=0;entryDy=0;endArrow=open;endFill=0;endSize=8;labelBackgroundColor=none;strokeColor=#457B9D;fontColor=default;fontSize=10;fontStyle=0" parent="1" source="06gIBUMiGxIdU6d7lTlG-20" target="06gIBUMiGxIdU6d7lTlG-18" edge="1">
          <mxGeometry relative="1" as="geometry" />
        </mxCell>
        <mxCell id="06gIBUMiGxIdU6d7lTlG-20" value="&lt;p style=&quot;text-align: center; margin: 4px 0px 0px; font-size: 10px;&quot;&gt;&lt;span style=&quot;font-size: 10px;&quot;&gt;StringEncoder&lt;/span&gt;&lt;br style=&quot;font-size: 10px;&quot;&gt;&lt;/p&gt;&lt;hr style=&quot;font-size: 10px;&quot;&gt;&lt;p style=&quot;margin: 0px 0px 0px 4px; font-size: 10px;&quot;&gt;- cs:&amp;nbsp;Charset&lt;/p&gt;&lt;p style=&quot;margin: 0px 0px 0px 4px; font-size: 10px;&quot;&gt;- ce:&amp;nbsp;CharsetEncoder&lt;/p&gt;&lt;hr style=&quot;font-size: 10px;&quot;&gt;&lt;p style=&quot;margin: 0px 0px 0px 4px; font-size: 10px;&quot;&gt;+ encode(char[] ...): byte[]&lt;/p&gt;" style="verticalAlign=top;align=left;overflow=fill;fontSize=10;fontFamily=Helvetica;html=1;fillColor=#dae8fc;strokeColor=#6c8ebf;labelBackgroundColor=none;fontStyle=0" parent="1" vertex="1">
          <mxGeometry x="400" y="940" width="160" height="80" as="geometry" />
        </mxCell>
        <mxCell id="06gIBUMiGxIdU6d7lTlG-30" style="edgeStyle=orthogonalEdgeStyle;rounded=0;orthogonalLoop=1;jettySize=auto;html=1;exitX=0.5;exitY=1;exitDx=0;exitDy=0;endArrow=diamondThin;endFill=0;endSize=8;labelBackgroundColor=none;strokeColor=#457B9D;fontColor=default;fontSize=10;fontStyle=0" parent="1" source="06gIBUMiGxIdU6d7lTlG-29" edge="1">
          <mxGeometry relative="1" as="geometry">
            <Array as="points">
              <mxPoint x="680" y="1030" />
              <mxPoint x="610" y="1030" />
            </Array>
            <mxPoint x="610" y="1050" as="targetPoint" />
          </mxGeometry>
        </mxCell>
        <mxCell id="06gIBUMiGxIdU6d7lTlG-32" style="edgeStyle=orthogonalEdgeStyle;rounded=0;orthogonalLoop=1;jettySize=auto;html=1;exitX=0.5;exitY=0;exitDx=0;exitDy=0;entryX=0.5;entryY=1;entryDx=0;entryDy=0;endArrow=open;endFill=0;endSize=8;labelBackgroundColor=none;strokeColor=#457B9D;fontColor=default;fontSize=10;fontStyle=0" parent="1" source="06gIBUMiGxIdU6d7lTlG-29" target="06gIBUMiGxIdU6d7lTlG-19" edge="1">
          <mxGeometry relative="1" as="geometry" />
        </mxCell>
        <mxCell id="06gIBUMiGxIdU6d7lTlG-29" value="&lt;p style=&quot;text-align: center; margin: 4px 0px 0px; font-size: 10px;&quot;&gt;&lt;span style=&quot;font-size: 10px;&quot;&gt;StringDecoder&lt;/span&gt;&lt;br style=&quot;font-size: 10px;&quot;&gt;&lt;/p&gt;&lt;hr style=&quot;font-size: 10px;&quot;&gt;&lt;p style=&quot;margin: 0px 0px 0px 4px; font-size: 10px;&quot;&gt;- cs:&amp;nbsp;Charset&lt;br style=&quot;font-size: 10px;&quot;&gt;&lt;/p&gt;&lt;p style=&quot;margin: 0px 0px 0px 4px; font-size: 10px;&quot;&gt;- cd:&amp;nbsp;CharsetDecoder&lt;/p&gt;&lt;hr style=&quot;font-size: 10px;&quot;&gt;&lt;p style=&quot;margin: 0px 0px 0px 4px; font-size: 10px;&quot;&gt;+ decode(char[] ...): byte[]&lt;/p&gt;" style="verticalAlign=top;align=left;overflow=fill;fontSize=10;fontFamily=Helvetica;html=1;fillColor=#dae8fc;strokeColor=#6c8ebf;labelBackgroundColor=none;fontStyle=0" parent="1" vertex="1">
          <mxGeometry x="600" y="940" width="160" height="80" as="geometry" />
        </mxCell>
        <mxCell id="06gIBUMiGxIdU6d7lTlG-36" style="edgeStyle=orthogonalEdgeStyle;rounded=0;orthogonalLoop=1;jettySize=auto;html=1;exitX=0.5;exitY=0;exitDx=0;exitDy=0;entryX=0.5;entryY=1;entryDx=0;entryDy=0;dashed=1;endArrow=block;endFill=0;endSize=8;labelBackgroundColor=none;strokeColor=#457B9D;fontColor=default;fontSize=10;fontStyle=0" parent="1" source="06gIBUMiGxIdU6d7lTlG-33" target="06gIBUMiGxIdU6d7lTlG-13" edge="1">
          <mxGeometry relative="1" as="geometry" />
        </mxCell>
        <mxCell id="06gIBUMiGxIdU6d7lTlG-33" value="UTF_8" style="fontStyle=0;align=center;fillColor=#dae8fc;strokeColor=#6c8ebf;labelBackgroundColor=none;fontSize=10;" parent="1" vertex="1">
          <mxGeometry x="891" y="990" width="80" height="20" as="geometry" />
        </mxCell>
        <mxCell id="06gIBUMiGxIdU6d7lTlG-37" style="edgeStyle=orthogonalEdgeStyle;rounded=0;orthogonalLoop=1;jettySize=auto;html=1;exitX=0.5;exitY=0;exitDx=0;exitDy=0;entryX=0.75;entryY=1;entryDx=0;entryDy=0;dashed=1;endArrow=block;endFill=0;endSize=8;labelBackgroundColor=none;strokeColor=#457B9D;fontColor=default;fontSize=10;fontStyle=0" parent="1" source="06gIBUMiGxIdU6d7lTlG-34" target="06gIBUMiGxIdU6d7lTlG-13" edge="1">
          <mxGeometry relative="1" as="geometry">
            <Array as="points">
              <mxPoint x="1031" y="950" />
              <mxPoint x="981" y="950" />
            </Array>
          </mxGeometry>
        </mxCell>
        <mxCell id="06gIBUMiGxIdU6d7lTlG-34" value="... ..." style="fontStyle=0;align=center;fillColor=#dae8fc;strokeColor=#6c8ebf;labelBackgroundColor=none;fontSize=10;" parent="1" vertex="1">
          <mxGeometry x="991" y="990" width="80" height="20" as="geometry" />
        </mxCell>
        <mxCell id="06gIBUMiGxIdU6d7lTlG-40" value="4. encode" style="text;html=1;resizable=0;autosize=1;align=center;verticalAlign=middle;points=[];fillColor=none;strokeColor=none;rounded=0;sketch=0;fontColor=#143642;labelBackgroundColor=none;fontSize=10;fontStyle=0" parent="1" vertex="1">
          <mxGeometry x="551" y="575" width="70" height="30" as="geometry" />
        </mxCell>
        <mxCell id="06gIBUMiGxIdU6d7lTlG-41" value="create" style="text;html=1;resizable=0;autosize=1;align=center;verticalAlign=middle;points=[];fillColor=none;strokeColor=none;rounded=0;sketch=0;fontColor=#143642;labelBackgroundColor=none;" parent="1" vertex="1">
          <mxGeometry x="210" y="1340" width="43" height="18" as="geometry" />
        </mxCell>
        <mxCell id="dncLsIHlxRkaWXGbc7eU-8" value="2. lookupCharset" style="text;html=1;resizable=0;autosize=1;align=center;verticalAlign=middle;points=[];fillColor=none;strokeColor=none;rounded=0;sketch=0;fontColor=#143642;labelBackgroundColor=none;fontSize=10;fontStyle=0" parent="1" vertex="1">
          <mxGeometry x="556" y="315" width="100" height="30" as="geometry" />
        </mxCell>
        <mxCell id="dncLsIHlxRkaWXGbc7eU-9" value="&lt;span style=&quot;font-size: 10px;&quot;&gt;StringEncoder&lt;/span&gt;" style="shape=umlLifeline;perimeter=lifelinePerimeter;whiteSpace=wrap;html=1;container=1;collapsible=0;recursiveResize=0;outlineConnect=0;size=20;fillColor=#FAE5C7;strokeColor=#0F8B8D;fontColor=#143642;labelBackgroundColor=none;fontSize=10;fontStyle=0" parent="1" vertex="1">
          <mxGeometry x="640" y="260" width="120" height="480" as="geometry" />
        </mxCell>
        <mxCell id="dncLsIHlxRkaWXGbc7eU-10" value="" style="html=1;points=[];perimeter=orthogonalPerimeter;fillColor=#FAE5C7;strokeColor=#0F8B8D;fontColor=#143642;labelBackgroundColor=none;fontSize=10;fontStyle=0" parent="dncLsIHlxRkaWXGbc7eU-9" vertex="1">
          <mxGeometry x="55" y="160" width="10" height="130" as="geometry" />
        </mxCell>
        <mxCell id="dncLsIHlxRkaWXGbc7eU-42" value="" style="html=1;points=[];perimeter=orthogonalPerimeter;fillColor=#FAE5C7;strokeColor=#0F8B8D;fontColor=#143642;labelBackgroundColor=none;fontSize=10;fontStyle=0" parent="dncLsIHlxRkaWXGbc7eU-9" vertex="1">
          <mxGeometry x="55" y="320" width="10" height="110" as="geometry" />
        </mxCell>
        <mxCell id="dncLsIHlxRkaWXGbc7eU-12" value="3. new StringEncoder()" style="text;html=1;resizable=0;autosize=1;align=center;verticalAlign=middle;points=[];fillColor=none;strokeColor=none;rounded=0;sketch=0;fontColor=#143642;labelBackgroundColor=none;fontSize=10;fontStyle=0" parent="1" vertex="1">
          <mxGeometry x="556" y="415" width="130" height="30" as="geometry" />
        </mxCell>
        <mxCell id="dncLsIHlxRkaWXGbc7eU-13" value="&lt;span style=&quot;font-size: 10px;&quot;&gt;CharsetEncoder&lt;/span&gt;" style="shape=umlLifeline;perimeter=lifelinePerimeter;whiteSpace=wrap;html=1;container=1;collapsible=0;recursiveResize=0;outlineConnect=0;size=20;fillColor=#FAE5C7;strokeColor=#0F8B8D;fontColor=#143642;labelBackgroundColor=none;fontSize=10;fontStyle=0" parent="1" vertex="1">
          <mxGeometry x="960" y="260" width="120" height="480" as="geometry" />
        </mxCell>
        <mxCell id="dncLsIHlxRkaWXGbc7eU-30" value="" style="html=1;points=[];perimeter=orthogonalPerimeter;fillColor=#FAE5C7;strokeColor=#0F8B8D;fontColor=#143642;labelBackgroundColor=none;fontSize=10;fontStyle=0" parent="dncLsIHlxRkaWXGbc7eU-13" vertex="1">
          <mxGeometry x="55" y="200" width="10" height="50" as="geometry" />
        </mxCell>
        <mxCell id="dncLsIHlxRkaWXGbc7eU-44" value="" style="html=1;points=[];perimeter=orthogonalPerimeter;fillColor=#FAE5C7;strokeColor=#0F8B8D;fontColor=#143642;labelBackgroundColor=none;fontSize=10;fontStyle=0" parent="dncLsIHlxRkaWXGbc7eU-13" vertex="1">
          <mxGeometry x="55" y="340" width="10" height="80" as="geometry" />
        </mxCell>
        <mxCell id="dncLsIHlxRkaWXGbc7eU-16" value="2.1. Charset.forName" style="text;html=1;resizable=0;autosize=1;align=center;verticalAlign=middle;points=[];fillColor=none;strokeColor=none;rounded=0;sketch=0;fontColor=#143642;labelBackgroundColor=none;fontSize=10;fontStyle=0" parent="1" vertex="1">
          <mxGeometry x="868" y="346" width="120" height="30" as="geometry" />
        </mxCell>
        <mxCell id="dncLsIHlxRkaWXGbc7eU-19" value="4.2. encodeLoop" style="text;html=1;resizable=0;autosize=1;align=center;verticalAlign=middle;points=[];fillColor=none;strokeColor=none;rounded=0;sketch=0;fontColor=#143642;labelBackgroundColor=none;fontSize=10;fontStyle=0" parent="1" vertex="1">
          <mxGeometry x="1040" y="626" width="100" height="30" as="geometry" />
        </mxCell>
        <mxCell id="dncLsIHlxRkaWXGbc7eU-23" value="3.1. newEncoder()" style="text;html=1;resizable=0;autosize=1;align=center;verticalAlign=middle;points=[];fillColor=none;strokeColor=none;rounded=0;sketch=0;fontColor=#143642;labelBackgroundColor=none;fontSize=10;fontStyle=0" parent="1" vertex="1">
          <mxGeometry x="864" y="454" width="110" height="30" as="geometry" />
        </mxCell>
        <mxCell id="dncLsIHlxRkaWXGbc7eU-29" value="&lt;span style=&quot;font-size: 10px;&quot;&gt;Charset&lt;/span&gt;" style="shape=umlLifeline;perimeter=lifelinePerimeter;whiteSpace=wrap;html=1;container=1;collapsible=0;recursiveResize=0;outlineConnect=0;size=20;fillColor=#FAE5C7;strokeColor=#0F8B8D;fontColor=#143642;labelBackgroundColor=none;fontSize=10;fontStyle=0" parent="1" vertex="1">
          <mxGeometry x="800" y="260" width="80" height="480" as="geometry" />
        </mxCell>
        <mxCell id="dncLsIHlxRkaWXGbc7eU-14" value="" style="html=1;points=[];perimeter=orthogonalPerimeter;fillColor=#FAE5C7;strokeColor=#0F8B8D;fontColor=#143642;labelBackgroundColor=none;fontSize=10;fontStyle=0" parent="dncLsIHlxRkaWXGbc7eU-29" vertex="1">
          <mxGeometry x="35" y="70" width="10" height="70" as="geometry" />
        </mxCell>
        <mxCell id="dncLsIHlxRkaWXGbc7eU-37" value="" style="html=1;points=[];perimeter=orthogonalPerimeter;fillColor=#FAE5C7;strokeColor=#0F8B8D;fontColor=#143642;labelBackgroundColor=none;fontSize=10;fontStyle=0" parent="dncLsIHlxRkaWXGbc7eU-29" vertex="1">
          <mxGeometry x="35" y="180" width="10" height="90" as="geometry" />
        </mxCell>
        <mxCell id="dncLsIHlxRkaWXGbc7eU-36" value="" style="endArrow=classic;endFill=1;endSize=8;html=1;labelBackgroundColor=none;strokeColor=#A8201A;fontColor=default;fontSize=10;fontStyle=0" parent="1" edge="1">
          <mxGeometry width="160" relative="1" as="geometry">
            <mxPoint x="706" y="460.02" as="sourcePoint" />
            <mxPoint x="834" y="460" as="targetPoint" />
            <Array as="points">
              <mxPoint x="782" y="460.02" />
            </Array>
          </mxGeometry>
        </mxCell>
        <mxCell id="dncLsIHlxRkaWXGbc7eU-40" value="" style="endArrow=classic;endFill=1;endSize=8;html=1;labelBackgroundColor=none;strokeColor=#A8201A;fontColor=default;entryX=1.1;entryY=0.754;entryDx=0;entryDy=0;entryPerimeter=0;dashed=1;fontSize=10;fontStyle=0" parent="1" target="dncLsIHlxRkaWXGbc7eU-10" edge="1">
          <mxGeometry width="160" relative="1" as="geometry">
            <mxPoint x="835" y="519" as="sourcePoint" />
            <mxPoint x="710" y="519" as="targetPoint" />
            <Array as="points">
              <mxPoint x="801" y="519" />
            </Array>
          </mxGeometry>
        </mxCell>
        <mxCell id="dncLsIHlxRkaWXGbc7eU-45" value="" style="endArrow=block;endFill=1;endSize=8;html=1;labelBackgroundColor=none;strokeColor=#A8201A;fontColor=default;entryX=-0.1;entryY=0.263;entryDx=0;entryDy=0;entryPerimeter=0;fontSize=10;fontStyle=0" parent="1" target="dncLsIHlxRkaWXGbc7eU-44" edge="1">
          <mxGeometry width="160" relative="1" as="geometry">
            <mxPoint x="706" y="620.02" as="sourcePoint" />
            <mxPoint x="880" y="620" as="targetPoint" />
            <Array as="points">
              <mxPoint x="782" y="620.02" />
            </Array>
          </mxGeometry>
        </mxCell>
        <mxCell id="dncLsIHlxRkaWXGbc7eU-46" value="4.1. encode" style="text;html=1;resizable=0;autosize=1;align=center;verticalAlign=middle;points=[];fillColor=none;strokeColor=none;rounded=0;sketch=0;fontColor=#143642;labelBackgroundColor=none;fontSize=10;fontStyle=0" parent="1" vertex="1">
          <mxGeometry x="862" y="596" width="80" height="30" as="geometry" />
        </mxCell>
      </root>
    </mxGraphModel>
  </diagram>
</mxfile>
